<svg xmlns="http://www.w3.org/2000/svg" xmlns:xlink="http://www.w3.org/1999/xlink" width="200" zoomAndPan="magnify" viewBox="0 0 150 52.499999" height="70" preserveAspectRatio="xMidYMid meet" version="1.0"><defs><g/><clipPath id="77debbd54c"><path d="M 4.03125 2.414062 L 50.835938 2.414062 L 50.835938 49.21875 L 4.03125 49.21875 Z M 4.03125 2.414062 " clip-rule="nonzero"/></clipPath></defs><path fill="#204465" d="M 23.5 7.195312 C 22.789062 7.066406 22.195312 6.558594 21.636719 6.074219 C 20.082031 4.726562 18.691406 5.390625 17 6.671875 C 19.335938 6.886719 19.132812 8.945312 23.5 7.195312 Z M 20.664062 5.972656 C 21.609375 6.429688 21.476562 6.609375 22.15625 6.984375 C 21.402344 6.816406 21.191406 6.632812 20.636719 6.484375 C 20.773438 6.554688 21.65625 6.902344 22.09375 7.125 C 22.136719 7.148438 22.417969 7.300781 22.195312 7.253906 C 21.953125 7.203125 21.011719 6.761719 21 6.792969 C 20.992188 6.8125 22.023438 7.382812 21.640625 7.296875 C 21.089844 7.171875 21.019531 7.089844 20.800781 7.066406 C 21.152344 7.195312 21.503906 7.425781 21.480469 7.441406 C 21.347656 7.535156 20.515625 7.53125 20.632812 7.535156 C 20.679688 7.535156 20.910156 7.589844 21.191406 7.578125 C 21.527344 7.570312 21.894531 7.503906 21.949219 7.535156 C 21.476562 7.65625 21 7.730469 20.554688 7.71875 C 19.96875 7.703125 19.550781 7.539062 19.046875 7.257812 C 18.757812 7.097656 18.480469 6.929688 18.179688 6.796875 C 18.039062 6.738281 17.929688 6.648438 17.886719 6.558594 C 18.546875 6.566406 18.921875 6.40625 19.457031 6.417969 C 18.875 6.332031 18.652344 6.453125 18.066406 6.394531 C 18.199219 6.335938 18.261719 6.132812 18.417969 6.082031 C 18.972656 5.902344 19.679688 5.789062 20.097656 5.863281 C 19.773438 5.609375 19.261719 5.84375 18.507812 5.890625 C 18.960938 5.660156 19.4375 5.5 19.902344 5.507812 C 20.527344 5.511719 21.058594 5.800781 21.523438 6.203125 C 21.875 6.511719 22.25 6.835938 22.667969 7.066406 C 21.960938 6.972656 21.398438 6.089844 20.664062 5.972656 Z M 31.371094 44.441406 C 32.078125 44.570312 32.675781 45.078125 33.234375 45.5625 C 34.785156 46.910156 36.179688 46.246094 37.871094 44.964844 C 35.535156 44.75 35.734375 42.691406 31.371094 44.441406 Z M 34.203125 45.664062 C 33.261719 45.207031 33.394531 45.027344 32.714844 44.652344 C 33.464844 44.820312 33.675781 45.003906 34.234375 45.152344 C 34.097656 45.082031 33.214844 44.734375 32.777344 44.511719 C 32.730469 44.488281 32.449219 44.335938 32.671875 44.382812 C 32.917969 44.433594 33.859375 44.875 33.871094 44.84375 C 33.875 44.824219 32.84375 44.253906 33.230469 44.339844 C 33.777344 44.464844 33.847656 44.546875 34.070312 44.570312 C 33.71875 44.441406 33.367188 44.210938 33.390625 44.195312 C 33.523438 44.101562 34.351562 44.105469 34.238281 44.101562 C 34.1875 44.101562 33.957031 44.046875 33.679688 44.058594 C 33.34375 44.066406 32.972656 44.132812 32.921875 44.101562 C 33.390625 43.980469 33.871094 43.90625 34.3125 43.917969 C 34.898438 43.933594 35.320312 44.097656 35.824219 44.378906 C 36.109375 44.539062 36.386719 44.707031 36.691406 44.839844 C 36.832031 44.898438 36.941406 44.988281 36.980469 45.078125 C 36.324219 45.070312 35.949219 45.230469 35.414062 45.21875 C 35.996094 45.304688 36.21875 45.183594 36.804688 45.242188 C 36.671875 45.300781 36.609375 45.503906 36.453125 45.554688 C 35.898438 45.734375 35.191406 45.847656 34.773438 45.773438 C 35.097656 46.027344 35.605469 45.792969 36.363281 45.746094 C 35.910156 45.976562 35.433594 46.136719 34.96875 46.128906 C 34.34375 46.125 33.8125 45.832031 33.347656 45.433594 C 32.992188 45.125 32.617188 44.800781 32.199219 44.570312 C 32.90625 44.664062 33.472656 45.546875 34.203125 45.664062 Z M 26.792969 6.792969 C 26.117188 6.546875 25.621094 5.941406 25.152344 5.367188 C 23.855469 3.769531 22.371094 4.179688 20.480469 5.152344 C 22.746094 5.765625 22.1875 7.761719 26.792969 6.792969 Z M 24.214844 5.097656 C 25.0625 5.714844 24.902344 5.867188 25.507812 6.355469 C 24.792969 6.054688 24.617188 5.839844 24.097656 5.597656 C 24.21875 5.6875 25.027344 6.1875 25.421875 6.480469 C 25.460938 6.511719 25.710938 6.710938 25.5 6.625 C 25.269531 6.53125 24.417969 5.9375 24.402344 5.964844 C 24.390625 5.980469 25.308594 6.722656 24.945312 6.570312 C 24.425781 6.355469 24.371094 6.261719 24.15625 6.199219 C 24.480469 6.386719 24.785156 6.675781 24.761719 6.6875 C 24.613281 6.757812 23.796875 6.605469 23.910156 6.628906 C 23.957031 6.640625 24.175781 6.734375 24.453125 6.773438 C 24.785156 6.820312 25.160156 6.820312 25.207031 6.859375 C 24.722656 6.898438 24.238281 6.890625 23.804688 6.800781 C 23.226562 6.679688 22.84375 6.445312 22.394531 6.082031 C 22.140625 5.875 21.898438 5.664062 21.621094 5.480469 C 21.492188 5.394531 21.402344 5.289062 21.378906 5.191406 C 22.023438 5.316406 22.421875 5.222656 22.945312 5.328125 C 22.386719 5.140625 22.144531 5.222656 21.578125 5.0625 C 21.722656 5.027344 21.820312 4.839844 21.980469 4.816406 C 22.558594 4.738281 23.273438 4.746094 23.675781 4.890625 C 23.398438 4.585938 22.855469 4.726562 22.105469 4.640625 C 22.589844 4.496094 23.085938 4.421875 23.542969 4.507812 C 24.15625 4.621094 24.628906 5 25.015625 5.476562 C 25.3125 5.839844 25.625 6.222656 25.996094 6.523438 C 25.316406 6.308594 24.917969 5.339844 24.214844 5.097656 Z M 28.074219 44.84375 C 28.753906 45.089844 29.25 45.695312 29.714844 46.269531 C 31.011719 47.863281 32.496094 47.457031 34.386719 46.484375 C 32.125 45.867188 32.679688 43.875 28.074219 44.84375 Z M 30.65625 46.539062 C 29.804688 45.921875 29.96875 45.769531 29.363281 45.28125 C 30.074219 45.578125 30.25 45.796875 30.773438 46.039062 C 30.648438 45.945312 29.84375 45.449219 29.449219 45.15625 C 29.410156 45.125 29.160156 44.925781 29.371094 45.011719 C 29.601562 45.101562 30.449219 45.699219 30.46875 45.671875 C 30.476562 45.652344 29.5625 44.914062 29.925781 45.0625 C 30.445312 45.28125 30.5 45.375 30.710938 45.4375 C 30.386719 45.246094 30.082031 44.960938 30.109375 44.949219 C 30.253906 44.878906 31.070312 45.03125 30.960938 45.003906 C 30.910156 44.996094 30.695312 44.902344 30.417969 44.863281 C 30.085938 44.816406 29.707031 44.816406 29.664062 44.777344 C 30.148438 44.738281 30.628906 44.746094 31.066406 44.835938 C 31.640625 44.953125 32.027344 45.1875 32.472656 45.554688 C 32.726562 45.761719 32.972656 45.972656 33.246094 46.15625 C 33.375 46.242188 33.464844 46.347656 33.492188 46.445312 C 32.847656 46.320312 32.449219 46.414062 31.921875 46.308594 C 32.480469 46.496094 32.722656 46.414062 33.289062 46.570312 C 33.148438 46.609375 33.050781 46.796875 32.886719 46.820312 C 32.3125 46.898438 31.59375 46.886719 31.195312 46.746094 C 31.46875 47.050781 32.011719 46.910156 32.765625 46.996094 C 32.28125 47.140625 31.785156 47.214844 31.324219 47.128906 C 30.710938 47.015625 30.238281 46.636719 29.851562 46.160156 C 29.554688 45.796875 29.242188 45.414062 28.871094 45.109375 C 29.550781 45.328125 29.953125 46.296875 30.65625 46.539062 Z M 30.105469 6.96875 C 29.480469 6.609375 29.097656 5.925781 28.738281 5.28125 C 27.738281 3.484375 26.203125 3.628906 24.175781 4.257812 C 26.296875 5.257812 25.402344 7.125 30.105469 6.96875 Z M 27.859375 4.851562 C 28.589844 5.605469 28.402344 5.730469 28.914062 6.316406 C 28.265625 5.898438 28.128906 5.652344 27.65625 5.324219 C 27.761719 5.4375 28.472656 6.066406 28.808594 6.425781 C 28.84375 6.460938 29.054688 6.699219 28.859375 6.582031 C 28.648438 6.449219 27.914062 5.714844 27.894531 5.738281 C 27.882812 5.753906 28.65625 6.644531 28.324219 6.433594 C 27.851562 6.125 27.8125 6.023438 27.613281 5.925781 C 27.898438 6.171875 28.148438 6.507812 28.121094 6.515625 C 27.964844 6.554688 27.1875 6.265625 27.292969 6.308594 C 27.339844 6.328125 27.539062 6.457031 27.804688 6.542969 C 28.121094 6.648438 28.492188 6.714844 28.53125 6.761719 C 28.046875 6.714844 27.574219 6.621094 27.160156 6.457031 C 26.613281 6.242188 26.277344 5.945312 25.898438 5.507812 C 25.683594 5.257812 25.480469 5.007812 25.242188 4.78125 C 25.128906 4.671875 25.058594 4.550781 25.050781 4.453125 C 25.664062 4.6875 26.070312 4.664062 26.570312 4.859375 C 26.054688 4.578125 25.800781 4.617188 25.273438 4.363281 C 25.417969 4.351562 25.546875 4.183594 25.710938 4.1875 C 26.292969 4.210938 26.996094 4.34375 27.367188 4.554688 C 27.144531 4.207031 26.585938 4.25 25.863281 4.039062 C 26.363281 3.976562 26.867188 3.992188 27.300781 4.15625 C 27.886719 4.375 28.289062 4.828125 28.585938 5.363281 C 28.8125 5.773438 29.054688 6.207031 29.367188 6.566406 C 28.738281 6.234375 28.511719 5.214844 27.859375 4.851562 Z M 24.761719 44.664062 C 25.386719 45.027344 25.769531 45.707031 26.128906 46.355469 C 27.128906 48.152344 28.664062 48.003906 30.691406 47.378906 C 28.570312 46.378906 29.464844 44.511719 24.761719 44.664062 Z M 27.007812 46.78125 C 26.277344 46.027344 26.464844 45.90625 25.953125 45.320312 C 26.601562 45.738281 26.738281 45.980469 27.210938 46.308594 C 27.105469 46.199219 26.394531 45.570312 26.058594 45.210938 C 26.027344 45.171875 25.8125 44.933594 26.007812 45.054688 C 26.21875 45.1875 26.953125 45.921875 26.972656 45.894531 C 26.984375 45.878906 26.210938 44.992188 26.542969 45.203125 C 27.019531 45.507812 27.054688 45.609375 27.253906 45.710938 C 26.96875 45.464844 26.71875 45.128906 26.746094 45.121094 C 26.902344 45.078125 27.679688 45.371094 27.574219 45.324219 C 27.527344 45.308594 27.328125 45.179688 27.066406 45.09375 C 26.746094 44.988281 26.375 44.921875 26.335938 44.875 C 26.820312 44.921875 27.292969 45.015625 27.707031 45.179688 C 28.253906 45.394531 28.589844 45.691406 28.96875 46.128906 C 29.183594 46.375 29.386719 46.628906 29.625 46.855469 C 29.738281 46.964844 29.808594 47.082031 29.816406 47.183594 C 29.203125 46.949219 28.796875 46.96875 28.296875 46.773438 C 28.8125 47.058594 29.066406 47.019531 29.59375 47.273438 C 29.449219 47.285156 29.320312 47.453125 29.15625 47.445312 C 28.578125 47.425781 27.871094 47.289062 27.503906 47.078125 C 27.722656 47.425781 28.28125 47.382812 29.003906 47.597656 C 28.503906 47.660156 28 47.644531 27.566406 47.480469 C 26.980469 47.261719 26.582031 46.808594 26.28125 46.269531 C 26.054688 45.863281 25.8125 45.429688 25.5 45.066406 C 26.128906 45.398438 26.359375 46.421875 27.007812 46.78125 Z M 33.335938 7.71875 C 32.785156 7.253906 32.527344 6.519531 32.285156 5.816406 C 31.613281 3.875 30.074219 3.753906 27.96875 4.019531 C 29.886719 5.371094 28.679688 7.054688 33.335938 7.71875 Z M 31.492188 5.246094 C 32.082031 6.113281 31.878906 6.203125 32.277344 6.867188 C 31.710938 6.34375 31.621094 6.082031 31.210938 5.675781 C 31.296875 5.800781 31.886719 6.546875 32.152344 6.957031 C 32.179688 7 32.347656 7.273438 32.179688 7.121094 C 31.992188 6.953125 31.398438 6.105469 31.375 6.125 C 31.359375 6.136719 31.964844 7.148438 31.675781 6.878906 C 31.261719 6.496094 31.242188 6.390625 31.0625 6.257812 C 31.304688 6.550781 31.492188 6.921875 31.464844 6.925781 C 31.300781 6.941406 30.585938 6.519531 30.683594 6.582031 C 30.726562 6.605469 30.898438 6.769531 31.144531 6.898438 C 31.441406 7.058594 31.792969 7.1875 31.824219 7.242188 C 31.355469 7.109375 30.902344 6.9375 30.523438 6.703125 C 30.027344 6.394531 29.742188 6.042969 29.449219 5.550781 C 29.28125 5.265625 29.125 4.984375 28.925781 4.71875 C 28.835938 4.59375 28.785156 4.460938 28.796875 4.363281 C 29.359375 4.699219 29.765625 4.75 30.222656 5.027344 C 29.761719 4.660156 29.507812 4.65625 29.03125 4.3125 C 29.175781 4.324219 29.332031 4.183594 29.492188 4.21875 C 30.058594 4.339844 30.730469 4.59375 31.058594 4.867188 C 30.902344 4.484375 30.34375 4.433594 29.667969 4.09375 C 30.171875 4.121094 30.664062 4.222656 31.066406 4.460938 C 31.605469 4.777344 31.917969 5.292969 32.121094 5.875 C 32.273438 6.316406 32.4375 6.785156 32.679688 7.195312 C 32.117188 6.757812 32.070312 5.714844 31.492188 5.246094 Z M 21.527344 43.914062 C 22.078125 44.378906 22.339844 45.117188 22.582031 45.816406 C 23.253906 47.757812 24.789062 47.882812 26.898438 47.617188 C 24.980469 46.261719 26.1875 44.578125 21.527344 43.914062 Z M 23.371094 46.390625 C 22.785156 45.519531 22.988281 45.429688 22.589844 44.765625 C 23.15625 45.289062 23.246094 45.554688 23.65625 45.960938 C 23.570312 45.832031 22.980469 45.089844 22.714844 44.675781 C 22.683594 44.632812 22.519531 44.363281 22.6875 44.515625 C 22.871094 44.679688 23.46875 45.53125 23.492188 45.511719 C 23.507812 45.496094 22.902344 44.488281 23.191406 44.753906 C 23.605469 45.136719 23.625 45.242188 23.800781 45.375 C 23.5625 45.085938 23.375 44.710938 23.402344 44.707031 C 23.5625 44.691406 24.28125 45.113281 24.183594 45.054688 C 24.140625 45.027344 23.96875 44.867188 23.722656 44.734375 C 23.425781 44.574219 23.074219 44.449219 23.042969 44.394531 C 23.511719 44.523438 23.960938 44.699219 24.339844 44.929688 C 24.839844 45.238281 25.121094 45.589844 25.417969 46.085938 C 25.585938 46.367188 25.742188 46.652344 25.9375 46.917969 C 26.03125 47.042969 26.082031 47.171875 26.070312 47.269531 C 25.507812 46.933594 25.101562 46.886719 24.644531 46.605469 C 25.101562 46.972656 25.359375 46.980469 25.835938 47.320312 C 25.691406 47.308594 25.535156 47.449219 25.375 47.417969 C 24.804688 47.296875 24.136719 47.039062 23.808594 46.769531 C 23.964844 47.148438 24.523438 47.203125 25.199219 47.539062 C 24.691406 47.511719 24.203125 47.410156 23.800781 47.175781 C 23.261719 46.855469 22.949219 46.339844 22.746094 45.761719 C 22.59375 45.316406 22.429688 44.847656 22.183594 44.4375 C 22.75 44.875 22.796875 45.921875 23.371094 46.390625 Z M 36.390625 9.019531 C 35.925781 8.464844 35.800781 7.695312 35.683594 6.964844 C 35.359375 4.933594 33.867188 4.546875 31.746094 4.441406 C 33.398438 6.109375 31.917969 7.554688 36.390625 9.019531 Z M 35.003906 6.261719 C 35.429688 7.21875 35.214844 7.273438 35.496094 7.996094 C 35.027344 7.382812 34.984375 7.105469 34.652344 6.636719 C 34.710938 6.777344 35.164062 7.609375 35.355469 8.0625 C 35.375 8.109375 35.492188 8.40625 35.351562 8.226562 C 35.199219 8.03125 34.761719 7.089844 34.734375 7.105469 C 34.714844 7.117188 35.136719 8.21875 34.898438 7.90625 C 34.558594 7.457031 34.558594 7.347656 34.40625 7.1875 C 34.589844 7.511719 34.710938 7.914062 34.683594 7.914062 C 34.519531 7.898438 33.890625 7.359375 33.972656 7.4375 C 34.011719 7.46875 34.152344 7.660156 34.371094 7.832031 C 34.636719 8.039062 34.960938 8.226562 34.984375 8.285156 C 34.542969 8.074219 34.128906 7.824219 33.796875 7.53125 C 33.359375 7.140625 33.140625 6.746094 32.9375 6.207031 C 32.820312 5.898438 32.714844 5.59375 32.566406 5.296875 C 32.5 5.15625 32.472656 5.019531 32.5 4.925781 C 32.996094 5.355469 33.386719 5.472656 33.789062 5.828125 C 33.402344 5.386719 33.148438 5.335938 32.738281 4.914062 C 32.878906 4.953125 33.058594 4.839844 33.210938 4.902344 C 33.75 5.121094 34.367188 5.488281 34.640625 5.8125 C 34.554688 5.410156 34.011719 5.261719 33.40625 4.8125 C 33.898438 4.925781 34.363281 5.109375 34.71875 5.414062 C 35.191406 5.820312 35.414062 6.386719 35.511719 6.992188 C 35.585938 7.453125 35.664062 7.941406 35.835938 8.390625 C 35.355469 7.859375 35.492188 6.824219 35.003906 6.261719 Z M 18.476562 42.613281 C 18.9375 43.167969 19.066406 43.9375 19.183594 44.671875 C 19.507812 46.699219 21 47.085938 23.121094 47.191406 C 21.46875 45.523438 22.945312 44.078125 18.476562 42.613281 Z M 19.863281 45.371094 C 19.433594 44.414062 19.652344 44.359375 19.371094 43.636719 C 19.839844 44.25 19.882812 44.527344 20.214844 44.996094 C 20.152344 44.855469 19.703125 44.023438 19.507812 43.570312 C 19.488281 43.523438 19.371094 43.226562 19.511719 43.40625 C 19.664062 43.601562 20.105469 44.542969 20.132812 44.527344 C 20.148438 44.515625 19.726562 43.414062 19.964844 43.730469 C 20.308594 44.175781 20.308594 44.285156 20.460938 44.449219 C 20.273438 44.121094 20.15625 43.71875 20.183594 43.722656 C 20.34375 43.734375 20.976562 44.273438 20.890625 44.195312 C 20.855469 44.164062 20.710938 43.976562 20.492188 43.800781 C 20.230469 43.59375 19.902344 43.40625 19.882812 43.347656 C 20.320312 43.558594 20.734375 43.808594 21.070312 44.101562 C 21.507812 44.492188 21.722656 44.886719 21.929688 45.425781 C 22.046875 45.734375 22.152344 46.039062 22.296875 46.335938 C 22.367188 46.476562 22.390625 46.613281 22.363281 46.707031 C 21.867188 46.277344 21.476562 46.160156 21.074219 45.804688 C 21.464844 46.246094 21.714844 46.296875 22.125 46.71875 C 21.984375 46.679688 21.804688 46.792969 21.65625 46.730469 C 21.117188 46.511719 20.5 46.144531 20.226562 45.820312 C 20.3125 46.222656 20.851562 46.371094 21.460938 46.820312 C 20.96875 46.707031 20.5 46.523438 20.148438 46.21875 C 19.671875 45.8125 19.453125 45.25 19.355469 44.644531 C 19.28125 44.179688 19.203125 43.691406 19.03125 43.242188 C 19.511719 43.773438 19.375 44.808594 19.863281 45.371094 Z M 39.171875 10.828125 C 38.8125 10.203125 38.820312 9.421875 38.832031 8.679688 C 38.863281 6.628906 37.460938 5.988281 35.390625 5.515625 C 36.730469 7.441406 35.019531 8.613281 39.171875 10.828125 Z M 38.285156 7.871094 C 38.539062 8.890625 38.316406 8.90625 38.464844 9.667969 C 38.113281 8.980469 38.117188 8.703125 37.871094 8.179688 C 37.90625 8.328125 38.207031 9.230469 38.320312 9.707031 C 38.328125 9.757812 38.394531 10.070312 38.285156 9.871094 C 38.167969 9.652344 37.902344 8.648438 37.871094 8.660156 C 37.851562 8.664062 38.078125 9.820312 37.898438 9.472656 C 37.636719 8.972656 37.65625 8.863281 37.535156 8.679688 C 37.660156 9.035156 37.707031 9.449219 37.679688 9.441406 C 37.523438 9.402344 36.996094 8.761719 37.066406 8.851562 C 37.097656 8.890625 37.203125 9.101562 37.390625 9.308594 C 37.613281 9.558594 37.902344 9.800781 37.910156 9.859375 C 37.515625 9.578125 37.152344 9.261719 36.875 8.914062 C 36.511719 8.453125 36.367188 8.027344 36.257812 7.460938 C 36.195312 7.136719 36.144531 6.816406 36.054688 6.5 C 36.007812 6.351562 36.007812 6.210938 36.050781 6.121094 C 36.464844 6.632812 36.828125 6.816406 37.164062 7.234375 C 36.859375 6.730469 36.621094 6.640625 36.289062 6.152344 C 36.421875 6.214844 36.617188 6.136719 36.753906 6.222656 C 37.246094 6.53125 37.789062 7 38.003906 7.367188 C 37.988281 6.957031 37.480469 6.714844 36.960938 6.167969 C 37.425781 6.367188 37.855469 6.628906 38.148438 6.988281 C 38.546875 7.472656 38.667969 8.066406 38.65625 8.679688 C 38.648438 9.148438 38.644531 9.644531 38.734375 10.113281 C 38.351562 9.507812 38.664062 8.511719 38.285156 7.871094 Z M 15.695312 40.800781 C 16.054688 41.425781 16.046875 42.210938 16.035156 42.949219 C 16 45.003906 17.402344 45.644531 19.472656 46.117188 C 18.136719 44.1875 19.84375 43.019531 15.695312 40.800781 Z M 16.582031 43.757812 C 16.328125 42.742188 16.546875 42.726562 16.398438 41.964844 C 16.753906 42.652344 16.746094 42.929688 16.992188 43.453125 C 16.957031 43.300781 16.65625 42.402344 16.546875 41.921875 C 16.535156 41.875 16.472656 41.5625 16.578125 41.761719 C 16.695312 41.980469 16.964844 42.984375 16.992188 42.972656 C 17.011719 42.964844 16.789062 41.808594 16.96875 42.160156 C 17.226562 42.660156 17.207031 42.769531 17.332031 42.953125 C 17.207031 42.597656 17.15625 42.183594 17.183594 42.1875 C 17.339844 42.230469 17.871094 42.871094 17.800781 42.78125 C 17.769531 42.742188 17.660156 42.53125 17.476562 42.324219 C 17.25 42.074219 16.964844 41.832031 16.953125 41.769531 C 17.347656 42.054688 17.714844 42.371094 17.988281 42.71875 C 18.351562 43.179688 18.496094 43.605469 18.605469 44.171875 C 18.667969 44.496094 18.71875 44.816406 18.8125 45.132812 C 18.855469 45.28125 18.855469 45.421875 18.8125 45.511719 C 18.398438 45 18.035156 44.816406 17.699219 44.398438 C 18.007812 44.898438 18.246094 44.992188 18.578125 45.476562 C 18.445312 45.414062 18.25 45.496094 18.109375 45.410156 C 17.617188 45.101562 17.074219 44.628906 16.859375 44.261719 C 16.878906 44.675781 17.382812 44.917969 17.902344 45.464844 C 17.4375 45.265625 17.011719 45.003906 16.714844 44.644531 C 16.316406 44.160156 16.199219 43.566406 16.207031 42.953125 C 16.214844 42.484375 16.222656 41.988281 16.132812 41.519531 C 16.511719 42.121094 16.199219 43.121094 16.582031 43.757812 Z M 41.59375 13.09375 C 41.347656 12.417969 41.492188 11.648438 41.632812 10.921875 C 42.023438 8.902344 40.753906 8.027344 38.796875 7.203125 C 39.777344 9.335938 37.894531 10.191406 41.59375 13.09375 Z M 41.234375 10.027344 C 41.308594 11.074219 41.085938 11.050781 41.101562 11.828125 C 40.875 11.089844 40.925781 10.816406 40.777344 10.261719 C 40.785156 10.414062 40.921875 11.351562 40.949219 11.84375 C 40.953125 11.894531 40.960938 12.210938 40.890625 11.996094 C 40.8125 11.757812 40.722656 10.726562 40.691406 10.730469 C 40.671875 10.734375 40.691406 11.914062 40.574219 11.539062 C 40.40625 11 40.445312 10.894531 40.355469 10.691406 C 40.417969 11.0625 40.394531 11.480469 40.367188 11.46875 C 40.222656 11.402344 39.8125 10.679688 39.867188 10.78125 C 39.886719 10.824219 39.957031 11.050781 40.105469 11.289062 C 40.28125 11.574219 40.523438 11.859375 40.523438 11.921875 C 40.183594 11.574219 39.878906 11.199219 39.667969 10.808594 C 39.386719 10.292969 39.320312 9.847656 39.3125 9.269531 C 39.304688 8.941406 39.3125 8.617188 39.277344 8.289062 C 39.257812 8.136719 39.28125 7.996094 39.339844 7.917969 C 39.660156 8.492188 39.984375 8.734375 40.242188 9.207031 C 40.027344 8.65625 39.808594 8.527344 39.566406 7.988281 C 39.6875 8.074219 39.894531 8.027344 40.015625 8.136719 C 40.445312 8.527344 40.898438 9.085938 41.046875 9.484375 C 41.101562 9.074219 40.644531 8.75 40.226562 8.121094 C 40.652344 8.398438 41.027344 8.730469 41.257812 9.136719 C 41.5625 9.679688 41.578125 10.285156 41.460938 10.886719 C 41.371094 11.347656 41.28125 11.835938 41.289062 12.3125 C 41.019531 11.652344 41.5 10.722656 41.234375 10.027344 Z M 13.269531 38.535156 C 13.515625 39.214844 13.371094 39.980469 13.230469 40.710938 C 12.84375 42.726562 14.113281 43.601562 16.070312 44.425781 C 15.085938 42.292969 16.972656 41.441406 13.269531 38.535156 Z M 13.628906 41.601562 C 13.554688 40.554688 13.777344 40.578125 13.761719 39.804688 C 13.992188 40.539062 13.9375 40.8125 14.089844 41.371094 C 14.078125 41.214844 13.941406 40.277344 13.914062 39.789062 C 13.910156 39.738281 13.902344 39.417969 13.972656 39.632812 C 14.050781 39.871094 14.140625 40.90625 14.171875 40.898438 C 14.191406 40.894531 14.171875 39.71875 14.289062 40.09375 C 14.457031 40.632812 14.417969 40.734375 14.507812 40.9375 C 14.445312 40.566406 14.46875 40.148438 14.496094 40.160156 C 14.644531 40.226562 15.054688 40.949219 15 40.847656 C 14.976562 40.804688 14.90625 40.578125 14.761719 40.34375 C 14.582031 40.058594 14.339844 39.769531 14.339844 39.707031 C 14.679688 40.054688 14.984375 40.429688 15.199219 40.820312 C 15.476562 41.335938 15.542969 41.785156 15.554688 42.359375 C 15.558594 42.6875 15.550781 43.011719 15.589844 43.339844 C 15.605469 43.496094 15.582031 43.632812 15.523438 43.714844 C 15.203125 43.140625 14.878906 42.894531 14.621094 42.425781 C 14.835938 42.972656 15.054688 43.105469 15.296875 43.640625 C 15.175781 43.554688 14.972656 43.601562 14.851562 43.492188 C 14.417969 43.101562 13.964844 42.546875 13.816406 42.148438 C 13.761719 42.554688 14.21875 42.878906 14.636719 43.511719 C 14.210938 43.234375 13.835938 42.902344 13.609375 42.496094 C 13.300781 41.949219 13.285156 41.34375 13.402344 40.742188 C 13.492188 40.28125 13.582031 39.796875 13.578125 39.316406 C 13.847656 39.976562 13.363281 40.90625 13.628906 41.601562 Z M 43.585938 15.746094 C 43.464844 15.035156 43.738281 14.304688 44.003906 13.613281 C 44.738281 11.691406 43.636719 10.609375 41.855469 9.460938 C 42.453125 11.730469 40.449219 12.242188 43.585938 15.746094 Z M 43.765625 12.664062 C 43.65625 13.707031 43.445312 13.644531 43.324219 14.414062 C 43.226562 13.648438 43.328125 13.386719 43.273438 12.8125 C 43.257812 12.964844 43.230469 13.914062 43.171875 14.402344 C 43.164062 14.453125 43.117188 14.765625 43.085938 14.542969 C 43.050781 14.296875 43.140625 13.261719 43.109375 13.261719 C 43.089844 13.261719 42.90625 14.425781 42.855469 14.035156 C 42.785156 13.476562 42.835938 13.382812 42.785156 13.164062 C 42.78125 13.542969 42.6875 13.949219 42.664062 13.933594 C 42.527344 13.839844 42.25 13.058594 42.285156 13.167969 C 42.300781 13.214844 42.332031 13.449219 42.433594 13.707031 C 42.558594 14.019531 42.746094 14.347656 42.738281 14.40625 C 42.460938 14.003906 42.226562 13.582031 42.085938 13.160156 C 41.902344 12.601562 41.914062 12.152344 42.003906 11.582031 C 42.054688 11.257812 42.117188 10.941406 42.140625 10.613281 C 42.148438 10.457031 42.195312 10.324219 42.265625 10.253906 C 42.480469 10.875 42.761719 11.175781 42.933594 11.683594 C 42.816406 11.105469 42.625 10.9375 42.476562 10.367188 C 42.582031 10.472656 42.792969 10.460938 42.894531 10.589844 C 43.25 11.050781 43.601562 11.675781 43.675781 12.09375 C 43.800781 11.703125 43.410156 11.304688 43.105469 10.609375 C 43.476562 10.957031 43.789062 11.347656 43.941406 11.789062 C 44.152344 12.378906 44.058594 12.976562 43.839844 13.550781 C 43.671875 13.988281 43.496094 14.449219 43.421875 14.921875 C 43.269531 14.226562 43.90625 13.394531 43.765625 12.664062 Z M 11.277344 35.882812 C 11.398438 36.59375 11.125 37.324219 10.859375 38.015625 C 10.128906 39.9375 11.226562 41.019531 13.011719 42.167969 C 12.410156 39.898438 14.417969 39.386719 11.277344 35.882812 Z M 11.097656 38.964844 C 11.207031 37.921875 11.421875 37.984375 11.539062 37.214844 C 11.636719 37.980469 11.539062 38.242188 11.589844 38.816406 C 11.609375 38.664062 11.632812 37.714844 11.695312 37.226562 C 11.699219 37.175781 11.746094 36.863281 11.777344 37.085938 C 11.8125 37.332031 11.722656 38.367188 11.753906 38.367188 C 11.773438 38.367188 11.960938 37.203125 12.007812 37.59375 C 12.082031 38.152344 12.027344 38.246094 12.078125 38.464844 C 12.082031 38.085938 12.179688 37.679688 12.203125 37.695312 C 12.335938 37.789062 12.613281 38.570312 12.578125 38.460938 C 12.5625 38.414062 12.53125 38.179688 12.429688 37.921875 C 12.304688 37.609375 12.117188 37.285156 12.128906 37.222656 C 12.402344 37.625 12.636719 38.046875 12.777344 38.46875 C 12.960938 39.023438 12.953125 39.476562 12.859375 40.046875 C 12.808594 40.371094 12.746094 40.6875 12.726562 41.015625 C 12.714844 41.171875 12.667969 41.304688 12.597656 41.375 C 12.382812 40.753906 12.101562 40.453125 11.933594 39.945312 C 12.046875 40.523438 12.242188 40.691406 12.386719 41.261719 C 12.28125 41.15625 12.070312 41.167969 11.972656 41.039062 C 11.613281 40.578125 11.265625 39.953125 11.1875 39.535156 C 11.0625 39.925781 11.457031 40.324219 11.757812 41.019531 C 11.386719 40.671875 11.078125 40.28125 10.921875 39.839844 C 10.714844 39.25 10.804688 38.652344 11.023438 38.078125 C 11.191406 37.640625 11.367188 37.175781 11.441406 36.707031 C 11.59375 37.402344 10.957031 38.234375 11.097656 38.964844 Z M 45.089844 18.703125 C 45.089844 17.984375 45.488281 17.308594 45.871094 16.675781 C 46.925781 14.910156 46.03125 13.65625 44.476562 12.210938 C 44.667969 14.550781 42.605469 14.710938 45.089844 18.703125 Z M 45.800781 15.699219 C 45.511719 16.707031 45.3125 16.609375 45.0625 17.34375 C 45.097656 16.574219 45.242188 16.335938 45.292969 15.761719 C 45.246094 15.90625 45.054688 16.835938 44.914062 17.308594 C 44.898438 17.355469 44.796875 17.65625 44.804688 17.429688 C 44.8125 17.183594 45.082031 16.179688 45.050781 16.175781 C 45.03125 16.171875 44.648438 17.285156 44.667969 16.890625 C 44.691406 16.328125 44.761719 16.246094 44.75 16.023438 C 44.679688 16.394531 44.515625 16.777344 44.496094 16.757812 C 44.378906 16.644531 44.242188 15.824219 44.257812 15.9375 C 44.265625 15.988281 44.25 16.222656 44.308594 16.496094 C 44.378906 16.824219 44.507812 17.179688 44.484375 17.234375 C 44.285156 16.792969 44.125 16.335938 44.0625 15.898438 C 43.976562 15.316406 44.066406 14.875 44.253906 14.328125 C 44.363281 14.019531 44.476562 13.71875 44.554688 13.394531 C 44.59375 13.246094 44.660156 13.125 44.742188 13.066406 C 44.847656 13.714844 45.070312 14.058594 45.152344 14.589844 C 45.136719 14 44.976562 13.800781 44.933594 13.214844 C 45.015625 13.335938 45.226562 13.363281 45.300781 13.507812 C 45.574219 14.019531 45.808594 14.699219 45.8125 15.125 C 46.003906 14.757812 45.683594 14.296875 45.507812 13.5625 C 45.8125 13.96875 46.050781 14.40625 46.128906 14.867188 C 46.230469 15.484375 46.035156 16.058594 45.722656 16.585938 C 45.480469 16.988281 45.226562 17.414062 45.070312 17.863281 C 45.042969 17.152344 45.8125 16.445312 45.800781 15.699219 Z M 9.773438 32.921875 C 9.773438 33.644531 9.375 34.316406 8.992188 34.953125 C 7.9375 36.714844 8.832031 37.972656 10.390625 39.414062 C 10.195312 37.078125 12.257812 36.917969 9.773438 32.921875 Z M 9.0625 35.925781 C 9.351562 34.917969 9.550781 35.015625 9.800781 34.28125 C 9.765625 35.054688 9.621094 35.292969 9.574219 35.867188 C 9.617188 35.71875 9.808594 34.789062 9.949219 34.320312 C 9.964844 34.273438 10.066406 33.96875 10.058594 34.195312 C 10.050781 34.445312 9.78125 35.449219 9.8125 35.453125 C 9.832031 35.457031 10.21875 34.34375 10.199219 34.734375 C 10.171875 35.296875 10.101562 35.382812 10.117188 35.605469 C 10.183594 35.234375 10.351562 34.847656 10.371094 34.871094 C 10.484375 34.984375 10.621094 35.800781 10.605469 35.6875 C 10.601562 35.640625 10.613281 35.402344 10.554688 35.132812 C 10.484375 34.800781 10.359375 34.449219 10.378906 34.390625 C 10.578125 34.832031 10.738281 35.289062 10.800781 35.730469 C 10.886719 36.3125 10.800781 36.753906 10.609375 37.296875 C 10.503906 37.609375 10.386719 37.910156 10.308594 38.230469 C 10.273438 38.382812 10.203125 38.503906 10.121094 38.558594 C 10.015625 37.910156 9.792969 37.570312 9.714844 37.039062 C 9.726562 37.628906 9.886719 37.828125 9.933594 38.414062 C 9.847656 38.292969 9.640625 38.265625 9.5625 38.121094 C 9.289062 37.605469 9.054688 36.929688 9.054688 36.503906 C 8.863281 36.867188 9.179688 37.332031 9.355469 38.066406 C 9.050781 37.660156 8.8125 37.21875 8.738281 36.757812 C 8.636719 36.140625 8.828125 35.570312 9.144531 35.042969 C 9.382812 34.640625 9.636719 34.214844 9.792969 33.761719 C 9.820312 34.476562 9.050781 35.183594 9.0625 35.925781 Z M 46.058594 21.878906 C 46.183594 21.167969 46.691406 20.574219 47.179688 20.015625 C 48.523438 18.460938 47.863281 17.070312 46.578125 15.378906 C 46.363281 17.714844 44.304688 17.511719 46.058594 21.878906 Z M 47.277344 19.042969 C 46.820312 19.984375 46.640625 19.855469 46.265625 20.535156 C 46.433594 19.78125 46.617188 19.570312 46.765625 19.015625 C 46.695312 19.152344 46.347656 20.03125 46.125 20.472656 C 46.101562 20.515625 45.949219 20.796875 45.996094 20.574219 C 46.046875 20.332031 46.488281 19.390625 46.457031 19.378906 C 46.4375 19.371094 45.867188 20.402344 45.953125 20.019531 C 46.078125 19.46875 46.160156 19.398438 46.1875 19.179688 C 46.054688 19.53125 45.824219 19.882812 45.808594 19.859375 C 45.714844 19.726562 45.71875 18.894531 45.714844 19.007812 C 45.714844 19.058594 45.660156 19.289062 45.671875 19.566406 C 45.679688 19.902344 45.746094 20.273438 45.714844 20.328125 C 45.59375 19.855469 45.519531 19.378906 45.53125 18.933594 C 45.546875 18.347656 45.710938 17.929688 45.992188 17.425781 C 46.152344 17.136719 46.320312 16.859375 46.453125 16.558594 C 46.515625 16.414062 46.601562 16.308594 46.695312 16.265625 C 46.683594 16.921875 46.84375 17.296875 46.832031 17.835938 C 46.917969 17.253906 46.796875 17.027344 46.855469 16.445312 C 46.914062 16.574219 47.117188 16.640625 47.167969 16.796875 C 47.347656 17.347656 47.460938 18.058594 47.386719 18.476562 C 47.640625 18.152344 47.410156 17.640625 47.359375 16.886719 C 47.589844 17.339844 47.75 17.8125 47.746094 18.28125 C 47.738281 18.90625 47.449219 19.4375 47.046875 19.898438 C 46.738281 20.253906 46.414062 20.628906 46.183594 21.046875 C 46.28125 20.339844 47.160156 19.777344 47.277344 19.042969 Z M 8.808594 29.746094 C 8.679688 30.457031 8.171875 31.050781 7.6875 31.613281 C 6.339844 33.164062 7.003906 34.554688 8.285156 36.25 C 8.5 33.910156 10.558594 34.113281 8.808594 29.746094 Z M 7.585938 32.582031 C 8.046875 31.640625 8.226562 31.769531 8.597656 31.089844 C 8.429688 31.84375 8.246094 32.054688 8.097656 32.613281 C 8.167969 32.476562 8.515625 31.59375 8.738281 31.15625 C 8.761719 31.109375 8.914062 30.828125 8.867188 31.050781 C 8.816406 31.292969 8.378906 32.234375 8.40625 32.246094 C 8.425781 32.253906 8.996094 31.222656 8.910156 31.605469 C 8.785156 32.15625 8.703125 32.226562 8.679688 32.449219 C 8.808594 32.09375 9.039062 31.746094 9.058594 31.769531 C 9.152344 31.898438 9.144531 32.730469 9.148438 32.617188 C 9.148438 32.566406 9.203125 32.335938 9.195312 32.058594 C 9.183594 31.722656 9.117188 31.351562 9.148438 31.300781 C 9.269531 31.769531 9.347656 32.246094 9.332031 32.691406 C 9.316406 33.277344 9.152344 33.699219 8.871094 34.203125 C 8.710938 34.488281 8.546875 34.765625 8.414062 35.066406 C 8.351562 35.210938 8.261719 35.320312 8.171875 35.359375 C 8.179688 34.703125 8.019531 34.328125 8.035156 33.792969 C 7.945312 34.371094 8.070312 34.597656 8.011719 35.183594 C 7.949219 35.050781 7.746094 34.984375 7.699219 34.832031 C 7.519531 34.277344 7.402344 33.566406 7.476562 33.148438 C 7.222656 33.472656 7.457031 33.984375 7.503906 34.738281 C 7.273438 34.289062 7.117188 33.8125 7.121094 33.347656 C 7.125 32.71875 7.417969 32.1875 7.816406 31.726562 C 8.125 31.371094 8.449219 30.996094 8.683594 30.578125 C 8.585938 31.285156 7.703125 31.847656 7.585938 32.582031 Z M 46.457031 25.171875 C 46.707031 24.492188 47.308594 23.996094 47.886719 23.53125 C 49.480469 22.234375 49.070312 20.75 48.097656 18.859375 C 47.484375 21.125 45.488281 20.566406 46.457031 25.171875 Z M 48.152344 22.589844 C 47.535156 23.441406 47.382812 23.28125 46.894531 23.882812 C 47.195312 23.171875 47.410156 22.996094 47.652344 22.472656 C 47.5625 22.597656 47.066406 23.402344 46.769531 23.796875 C 46.738281 23.835938 46.539062 24.085938 46.625 23.878906 C 46.71875 23.644531 47.3125 22.796875 47.285156 22.78125 C 47.269531 22.769531 46.527344 23.683594 46.679688 23.324219 C 46.898438 22.800781 46.992188 22.75 47.054688 22.535156 C 46.863281 22.859375 46.574219 23.164062 46.5625 23.136719 C 46.492188 22.992188 46.644531 22.175781 46.621094 22.289062 C 46.609375 22.335938 46.519531 22.554688 46.480469 22.828125 C 46.429688 23.160156 46.429688 23.539062 46.390625 23.585938 C 46.355469 23.101562 46.363281 22.617188 46.449219 22.179688 C 46.570312 21.605469 46.804688 21.222656 47.167969 20.773438 C 47.375 20.519531 47.585938 20.273438 47.769531 20 C 47.855469 19.871094 47.960938 19.78125 48.058594 19.753906 C 47.933594 20.402344 48.027344 20.796875 47.921875 21.324219 C 48.109375 20.765625 48.027344 20.523438 48.1875 19.957031 C 48.222656 20.097656 48.410156 20.195312 48.433594 20.359375 C 48.515625 20.933594 48.503906 21.652344 48.359375 22.050781 C 48.664062 21.777344 48.523438 21.234375 48.609375 20.480469 C 48.757812 20.96875 48.828125 21.460938 48.746094 21.921875 C 48.628906 22.535156 48.25 23.007812 47.777344 23.394531 C 47.410156 23.691406 47.027344 24.003906 46.726562 24.375 C 46.945312 23.695312 47.910156 23.292969 48.152344 22.589844 Z M 8.40625 26.453125 C 8.160156 27.128906 7.554688 27.628906 6.980469 28.09375 C 5.386719 29.390625 5.796875 30.875 6.765625 32.765625 C 7.382812 30.5 9.375 31.058594 8.40625 26.453125 Z M 6.710938 29.03125 C 7.328125 28.183594 7.484375 28.34375 7.96875 27.742188 C 7.671875 28.453125 7.453125 28.628906 7.210938 29.152344 C 7.304688 29.027344 7.800781 28.21875 8.097656 27.828125 C 8.125 27.785156 8.324219 27.535156 8.242188 27.746094 C 8.148438 27.976562 7.550781 28.828125 7.578125 28.84375 C 7.597656 28.855469 8.339844 27.9375 8.1875 28.300781 C 7.96875 28.820312 7.875 28.875 7.8125 29.089844 C 8.003906 28.765625 8.289062 28.460938 8.300781 28.488281 C 8.371094 28.632812 8.21875 29.449219 8.246094 29.335938 C 8.253906 29.289062 8.347656 29.070312 8.386719 28.796875 C 8.433594 28.460938 8.433594 28.085938 8.472656 28.039062 C 8.511719 28.523438 8.503906 29.007812 8.414062 29.445312 C 8.296875 30.019531 8.0625 30.402344 7.699219 30.851562 C 7.492188 31.105469 7.277344 31.347656 7.09375 31.625 C 7.007812 31.753906 6.902344 31.84375 6.804688 31.871094 C 6.929688 31.222656 6.835938 30.828125 6.941406 30.300781 C 6.753906 30.859375 6.839844 31.101562 6.679688 31.667969 C 6.640625 31.523438 6.453125 31.425781 6.433594 31.265625 C 6.351562 30.691406 6.363281 29.972656 6.507812 29.570312 C 6.203125 29.847656 6.339844 30.390625 6.257812 31.140625 C 6.109375 30.65625 6.035156 30.160156 6.121094 29.703125 C 6.234375 29.089844 6.613281 28.617188 7.089844 28.230469 C 7.453125 27.933594 7.835938 27.621094 8.140625 27.25 C 7.921875 27.929688 6.957031 28.328125 6.710938 29.03125 Z M 46.28125 28.484375 C 46.640625 27.859375 47.324219 27.476562 47.972656 27.117188 C 49.765625 26.117188 49.621094 24.582031 48.992188 22.554688 C 47.992188 24.675781 46.125 23.78125 46.28125 28.484375 Z M 48.398438 26.238281 C 47.644531 26.964844 47.519531 26.78125 46.933594 27.292969 C 47.351562 26.644531 47.597656 26.507812 47.925781 26.035156 C 47.8125 26.140625 47.183594 26.847656 46.824219 27.183594 C 46.789062 27.21875 46.550781 27.429688 46.671875 27.238281 C 46.800781 27.027344 47.535156 26.292969 47.511719 26.273438 C 47.496094 26.257812 46.605469 27.03125 46.820312 26.703125 C 47.125 26.226562 47.226562 26.191406 47.324219 25.992188 C 47.082031 26.277344 46.746094 26.527344 46.738281 26.5 C 46.695312 26.34375 46.984375 25.566406 46.941406 25.671875 C 46.921875 25.71875 46.792969 25.917969 46.707031 26.179688 C 46.601562 26.5 46.539062 26.871094 46.488281 26.910156 C 46.539062 26.425781 46.628906 25.953125 46.792969 25.539062 C 47.007812 24.992188 47.308594 24.652344 47.742188 24.277344 C 47.992188 24.0625 48.242188 23.859375 48.472656 23.621094 C 48.578125 23.507812 48.699219 23.4375 48.796875 23.429688 C 48.5625 24.042969 48.585938 24.449219 48.390625 24.949219 C 48.671875 24.433594 48.632812 24.179688 48.886719 23.648438 C 48.902344 23.796875 49.066406 23.925781 49.0625 24.085938 C 49.042969 24.667969 48.90625 25.375 48.695312 25.742188 C 49.042969 25.523438 49 24.964844 49.210938 24.238281 C 49.273438 24.742188 49.261719 25.242188 49.097656 25.679688 C 48.875 26.265625 48.421875 26.664062 47.886719 26.964844 C 47.476562 27.191406 47.042969 27.433594 46.683594 27.746094 C 47.015625 27.117188 48.035156 26.886719 48.398438 26.238281 Z M 8.585938 23.140625 C 8.222656 23.761719 7.542969 24.148438 6.894531 24.507812 C 5.101562 25.507812 5.246094 27.039062 5.875 29.070312 C 6.871094 26.945312 8.738281 27.839844 8.585938 23.140625 Z M 6.46875 25.386719 C 7.222656 24.65625 7.347656 24.839844 7.929688 24.332031 C 7.511719 24.980469 7.269531 25.113281 6.941406 25.589844 C 7.050781 25.484375 7.679688 24.773438 8.039062 24.4375 C 8.078125 24.402344 8.316406 24.191406 8.195312 24.382812 C 8.066406 24.59375 7.332031 25.328125 7.355469 25.351562 C 7.371094 25.363281 8.257812 24.589844 8.046875 24.921875 C 7.742188 25.394531 7.640625 25.433594 7.542969 25.632812 C 7.785156 25.347656 8.121094 25.09375 8.128906 25.125 C 8.171875 25.277344 7.882812 26.058594 7.925781 25.953125 C 7.941406 25.90625 8.070312 25.707031 8.160156 25.441406 C 8.261719 25.121094 8.328125 24.753906 8.375 24.714844 C 8.328125 25.195312 8.238281 25.671875 8.074219 26.085938 C 7.855469 26.628906 7.558594 26.96875 7.125 27.347656 C 6.875 27.5625 6.621094 27.765625 6.394531 28.003906 C 6.289062 28.117188 6.167969 28.1875 6.066406 28.195312 C 6.300781 27.582031 6.28125 27.171875 6.476562 26.675781 C 6.191406 27.191406 6.234375 27.445312 5.976562 27.972656 C 5.964844 27.828125 5.796875 27.699219 5.804688 27.535156 C 5.824219 26.953125 5.960938 26.25 6.171875 25.878906 C 5.824219 26.097656 5.867188 26.660156 5.652344 27.382812 C 5.59375 26.878906 5.605469 26.378906 5.769531 25.945312 C 5.988281 25.359375 6.445312 24.957031 6.980469 24.660156 C 7.390625 24.433594 7.820312 24.191406 8.183594 23.875 C 7.851562 24.507812 6.828125 24.734375 6.46875 25.386719 Z M 45.53125 31.714844 C 45.996094 31.164062 46.734375 30.902344 47.433594 30.660156 C 49.375 29.988281 49.496094 28.453125 49.230469 26.347656 C 47.878906 28.261719 46.195312 27.058594 45.53125 31.714844 Z M 48.007812 29.871094 C 47.136719 30.457031 47.046875 30.253906 46.382812 30.65625 C 46.90625 30.089844 47.171875 30 47.574219 29.589844 C 47.449219 29.675781 46.707031 30.261719 46.292969 30.53125 C 46.25 30.558594 45.980469 30.726562 46.128906 30.558594 C 46.296875 30.371094 47.148438 29.777344 47.125 29.75 C 47.113281 29.734375 46.101562 30.34375 46.371094 30.054688 C 46.753906 29.640625 46.859375 29.621094 46.992188 29.441406 C 46.703125 29.679688 46.328125 29.871094 46.324219 29.839844 C 46.308594 29.679688 46.730469 28.964844 46.667969 29.0625 C 46.644531 29.101562 46.484375 29.277344 46.351562 29.523438 C 46.191406 29.820312 46.0625 30.171875 46.011719 30.203125 C 46.140625 29.734375 46.3125 29.28125 46.546875 28.902344 C 46.855469 28.402344 47.207031 28.121094 47.699219 27.824219 C 47.984375 27.65625 48.265625 27.5 48.53125 27.304688 C 48.65625 27.214844 48.789062 27.164062 48.886719 27.175781 C 48.550781 27.738281 48.5 28.144531 48.222656 28.601562 C 48.589844 28.140625 48.59375 27.886719 48.9375 27.40625 C 48.925781 27.554688 49.066406 27.710938 49.03125 27.867188 C 48.910156 28.4375 48.65625 29.109375 48.382812 29.433594 C 48.765625 29.28125 48.820312 28.722656 49.15625 28.046875 C 49.128906 28.550781 49.027344 29.042969 48.789062 29.445312 C 48.472656 29.980469 47.957031 30.296875 47.375 30.496094 C 46.933594 30.652344 46.464844 30.8125 46.054688 31.058594 C 46.492188 30.496094 47.539062 30.449219 48.007812 29.871094 Z M 9.335938 19.90625 C 8.871094 20.457031 8.132812 20.71875 7.433594 20.960938 C 5.492188 21.632812 5.371094 23.167969 5.636719 25.277344 C 6.988281 23.359375 8.671875 24.5625 9.335938 19.90625 Z M 6.859375 21.75 C 7.730469 21.164062 7.820312 21.367188 8.484375 20.964844 C 7.960938 21.53125 7.695312 21.625 7.292969 22.03125 C 7.417969 21.949219 8.160156 21.359375 8.574219 21.089844 C 8.617188 21.0625 8.886719 20.894531 8.738281 21.066406 C 8.570312 21.25 7.71875 21.84375 7.742188 21.871094 C 7.753906 21.886719 8.761719 21.277344 8.496094 21.566406 C 8.113281 21.980469 8.007812 22 7.875 22.179688 C 8.164062 21.941406 8.539062 21.753906 8.542969 21.78125 C 8.558594 21.941406 8.136719 22.65625 8.195312 22.5625 C 8.222656 22.519531 8.382812 22.347656 8.515625 22.101562 C 8.675781 21.804688 8.804688 21.449219 8.855469 21.421875 C 8.726562 21.886719 8.554688 22.339844 8.320312 22.71875 C 8.011719 23.21875 7.660156 23.5 7.164062 23.796875 C 6.882812 23.964844 6.601562 24.121094 6.335938 24.316406 C 6.210938 24.410156 6.078125 24.457031 5.980469 24.449219 C 6.316406 23.882812 6.367188 23.480469 6.644531 23.019531 C 6.277344 23.480469 6.273438 23.738281 5.929688 24.214844 C 5.941406 24.070312 5.800781 23.914062 5.832031 23.753906 C 5.957031 23.183594 6.210938 22.511719 6.484375 22.1875 C 6.101562 22.34375 6.046875 22.898438 5.710938 23.578125 C 5.738281 23.070312 5.839844 22.582031 6.078125 22.179688 C 6.394531 21.640625 6.910156 21.324219 7.492188 21.125 C 7.933594 20.972656 8.402344 20.808594 8.8125 20.5625 C 8.375 21.125 7.328125 21.171875 6.859375 21.75 Z M 44.230469 34.769531 C 44.785156 34.304688 45.554688 34.175781 46.289062 34.058594 C 48.316406 33.734375 48.703125 32.246094 48.808594 30.121094 C 47.144531 31.777344 45.695312 30.296875 44.230469 34.769531 Z M 46.988281 33.382812 C 46.03125 33.808594 45.976562 33.59375 45.253906 33.871094 C 45.867188 33.40625 46.144531 33.363281 46.613281 33.03125 C 46.472656 33.089844 45.640625 33.542969 45.1875 33.734375 C 45.140625 33.753906 44.84375 33.871094 45.023438 33.730469 C 45.21875 33.578125 46.160156 33.140625 46.144531 33.109375 C 46.132812 33.09375 45.035156 33.515625 45.347656 33.277344 C 45.792969 32.9375 45.90625 32.9375 46.066406 32.78125 C 45.738281 32.96875 45.335938 33.089844 45.339844 33.058594 C 45.351562 32.898438 45.890625 32.265625 45.8125 32.351562 C 45.78125 32.386719 45.59375 32.53125 45.421875 32.75 C 45.210938 33.015625 45.023438 33.339844 44.964844 33.359375 C 45.175781 32.921875 45.425781 32.507812 45.71875 32.175781 C 46.109375 31.738281 46.503906 31.519531 47.042969 31.316406 C 47.351562 31.195312 47.65625 31.09375 47.953125 30.945312 C 48.09375 30.878906 48.230469 30.851562 48.324219 30.878906 C 47.894531 31.375 47.777344 31.765625 47.421875 32.167969 C 47.863281 31.78125 47.914062 31.527344 48.335938 31.117188 C 48.296875 31.257812 48.410156 31.4375 48.347656 31.585938 C 48.128906 32.128906 47.761719 32.742188 47.4375 33.019531 C 47.839844 32.929688 47.988281 32.390625 48.4375 31.78125 C 48.324219 32.277344 48.140625 32.742188 47.835938 33.097656 C 47.429688 33.570312 46.867188 33.792969 46.261719 33.886719 C 45.796875 33.960938 45.308594 34.042969 44.859375 34.210938 C 45.390625 33.734375 46.425781 33.867188 46.988281 33.382812 Z M 10.636719 16.851562 C 10.085938 17.316406 9.3125 17.445312 8.582031 17.5625 C 6.550781 17.886719 6.164062 19.375 6.058594 21.5 C 7.726562 19.84375 9.171875 21.324219 10.636719 16.851562 Z M 7.878906 18.238281 C 8.835938 17.8125 8.890625 18.027344 9.613281 17.75 C 9 18.214844 8.722656 18.257812 8.253906 18.589844 C 8.394531 18.53125 9.226562 18.078125 9.679688 17.886719 C 9.726562 17.867188 10.023438 17.75 9.847656 17.890625 C 9.648438 18.042969 8.707031 18.480469 8.726562 18.511719 C 8.734375 18.527344 9.835938 18.105469 9.523438 18.34375 C 9.074219 18.683594 8.964844 18.683594 8.804688 18.839844 C 9.128906 18.652344 9.53125 18.53125 9.53125 18.5625 C 9.515625 18.722656 8.976562 19.355469 9.054688 19.269531 C 9.085938 19.234375 9.277344 19.089844 9.449219 18.871094 C 9.65625 18.605469 9.84375 18.28125 9.902344 18.261719 C 9.691406 18.699219 9.441406 19.113281 9.148438 19.445312 C 8.757812 19.882812 8.363281 20.101562 7.824219 20.304688 C 7.515625 20.425781 7.210938 20.527344 6.914062 20.675781 C 6.777344 20.742188 6.640625 20.769531 6.542969 20.742188 C 6.972656 20.246094 7.089844 19.855469 7.445312 19.453125 C 7.003906 19.839844 6.953125 20.09375 6.535156 20.503906 C 6.570312 20.363281 6.457031 20.183594 6.519531 20.03125 C 6.738281 19.492188 7.105469 18.878906 7.429688 18.601562 C 7.03125 18.691406 6.878906 19.230469 6.429688 19.839844 C 6.542969 19.34375 6.730469 18.878906 7.03125 18.523438 C 7.441406 18.050781 8.003906 17.828125 8.609375 17.734375 C 9.070312 17.660156 9.5625 17.578125 10.007812 17.410156 C 9.480469 17.886719 8.441406 17.753906 7.878906 18.238281 Z M 42.421875 37.546875 C 43.046875 37.1875 43.828125 37.195312 44.570312 37.207031 C 46.621094 37.242188 47.265625 35.839844 47.734375 33.769531 C 45.808594 35.105469 44.640625 33.398438 42.421875 37.546875 Z M 45.378906 36.664062 C 44.359375 36.914062 44.34375 36.695312 43.582031 36.84375 C 44.269531 36.492188 44.550781 36.496094 45.070312 36.25 C 44.921875 36.285156 44.023438 36.585938 43.542969 36.695312 C 43.492188 36.707031 43.179688 36.769531 43.378906 36.664062 C 43.601562 36.546875 44.601562 36.277344 44.59375 36.25 C 44.585938 36.230469 43.429688 36.453125 43.777344 36.273438 C 44.28125 36.015625 44.386719 36.035156 44.570312 35.910156 C 44.21875 36.039062 43.800781 36.085938 43.808594 36.058594 C 43.847656 35.902344 44.488281 35.375 44.398438 35.445312 C 44.359375 35.472656 44.148438 35.582031 43.941406 35.765625 C 43.691406 35.992188 43.449219 36.28125 43.390625 36.289062 C 43.671875 35.894531 43.988281 35.527344 44.339844 35.253906 C 44.796875 34.890625 45.226562 34.746094 45.789062 34.636719 C 46.113281 34.574219 46.433594 34.523438 46.75 34.429688 C 46.898438 34.386719 47.039062 34.386719 47.128906 34.429688 C 46.621094 34.84375 46.433594 35.207031 46.015625 35.542969 C 46.519531 35.238281 46.609375 34.996094 47.097656 34.667969 C 47.035156 34.796875 47.113281 34.992188 47.027344 35.132812 C 46.71875 35.625 46.25 36.167969 45.882812 36.382812 C 46.292969 36.367188 46.535156 35.859375 47.082031 35.339844 C 46.882812 35.804688 46.621094 36.230469 46.261719 36.527344 C 45.777344 36.925781 45.183594 37.042969 44.570312 37.035156 C 44.105469 37.027344 43.605469 37.019531 43.136719 37.109375 C 43.742188 36.730469 44.738281 37.042969 45.378906 36.664062 Z M 12.449219 14.074219 C 11.824219 14.429688 11.042969 14.425781 10.300781 14.410156 C 8.246094 14.378906 7.605469 15.78125 7.132812 17.851562 C 9.0625 16.511719 10.230469 18.222656 12.449219 14.074219 Z M 9.492188 14.957031 C 10.507812 14.703125 10.523438 14.925781 11.285156 14.777344 C 10.597656 15.128906 10.320312 15.125 9.800781 15.371094 C 9.949219 15.335938 10.847656 15.035156 11.328125 14.925781 C 11.375 14.914062 11.6875 14.847656 11.488281 14.957031 C 11.269531 15.074219 10.265625 15.339844 10.277344 15.371094 C 10.285156 15.390625 11.441406 15.167969 11.089844 15.347656 C 10.589844 15.605469 10.484375 15.585938 10.296875 15.707031 C 10.652344 15.582031 11.070312 15.535156 11.0625 15.5625 C 11.019531 15.71875 10.378906 16.246094 10.46875 16.175781 C 10.507812 16.144531 10.71875 16.039062 10.925781 15.851562 C 11.175781 15.628906 11.417969 15.339844 11.480469 15.332031 C 11.195312 15.726562 10.878906 16.089844 10.53125 16.367188 C 10.070312 16.730469 9.644531 16.875 9.078125 16.984375 C 8.753906 17.046875 8.4375 17.097656 8.121094 17.191406 C 7.96875 17.234375 7.832031 17.234375 7.742188 17.191406 C 8.25 16.777344 8.433594 16.414062 8.855469 16.078125 C 8.351562 16.382812 8.257812 16.625 7.773438 16.953125 C 7.835938 16.820312 7.753906 16.625 7.839844 16.488281 C 8.148438 15.996094 8.621094 15.453125 8.988281 15.238281 C 8.578125 15.253906 8.335938 15.761719 7.785156 16.28125 C 7.984375 15.816406 8.246094 15.386719 8.609375 15.09375 C 9.089844 14.695312 9.683594 14.574219 10.296875 14.585938 C 10.765625 14.59375 11.261719 14.601562 11.730469 14.511719 C 11.128906 14.890625 10.128906 14.578125 9.492188 14.957031 Z M 40.15625 39.972656 C 40.832031 39.726562 41.601562 39.871094 42.332031 40.011719 C 44.347656 40.398438 45.222656 39.128906 46.046875 37.171875 C 43.914062 38.15625 43.0625 36.269531 40.15625 39.972656 Z M 43.222656 39.613281 C 42.175781 39.6875 42.199219 39.464844 41.425781 39.480469 C 42.160156 39.25 42.433594 39.304688 42.988281 39.152344 C 42.835938 39.164062 41.898438 39.300781 41.40625 39.328125 C 41.359375 39.332031 41.039062 39.339844 41.253906 39.269531 C 41.492188 39.191406 42.523438 39.101562 42.519531 39.070312 C 42.515625 39.050781 41.339844 39.070312 41.714844 38.953125 C 42.25 38.785156 42.355469 38.824219 42.558594 38.734375 C 42.1875 38.796875 41.769531 38.773438 41.78125 38.746094 C 41.847656 38.597656 42.570312 38.1875 42.46875 38.242188 C 42.425781 38.265625 42.199219 38.335938 41.964844 38.484375 C 41.675781 38.660156 41.390625 38.902344 41.328125 38.902344 C 41.675781 38.5625 42.050781 38.257812 42.441406 38.042969 C 42.957031 37.765625 43.402344 37.699219 43.980469 37.6875 C 44.308594 37.683594 44.632812 37.691406 44.960938 37.652344 C 45.113281 37.636719 45.253906 37.660156 45.332031 37.71875 C 44.761719 38.039062 44.515625 38.363281 44.042969 38.621094 C 44.59375 38.40625 44.722656 38.1875 45.261719 37.945312 C 45.175781 38.066406 45.222656 38.269531 45.113281 38.390625 C 44.722656 38.824219 44.164062 39.277344 43.765625 39.425781 C 44.175781 39.480469 44.5 39.023438 45.128906 38.605469 C 44.855469 39.03125 44.519531 39.40625 44.113281 39.632812 C 43.570312 39.941406 42.964844 39.957031 42.363281 39.839844 C 41.902344 39.75 41.414062 39.660156 40.9375 39.664062 C 41.597656 39.394531 42.527344 39.878906 43.222656 39.613281 Z M 14.714844 11.648438 C 14.039062 11.894531 13.269531 11.75 12.539062 11.609375 C 10.523438 11.21875 9.648438 12.488281 8.824219 14.449219 C 10.957031 13.464844 11.8125 15.347656 14.714844 11.648438 Z M 11.648438 12.007812 C 12.695312 11.933594 12.671875 12.15625 13.449219 12.140625 C 12.710938 12.367188 12.4375 12.316406 11.882812 12.464844 C 12.035156 12.457031 12.972656 12.320312 13.464844 12.292969 C 13.511719 12.289062 13.832031 12.28125 13.617188 12.351562 C 13.378906 12.429688 12.347656 12.519531 12.351562 12.550781 C 12.355469 12.570312 13.53125 12.550781 13.15625 12.667969 C 12.617188 12.835938 12.515625 12.796875 12.3125 12.886719 C 12.683594 12.824219 13.101562 12.847656 13.089844 12.875 C 13.023438 13.019531 12.300781 13.429688 12.402344 13.378906 C 12.445312 13.355469 12.671875 13.285156 12.90625 13.136719 C 13.191406 12.960938 13.480469 12.71875 13.542969 12.71875 C 13.195312 13.058594 12.820312 13.363281 12.429688 13.574219 C 11.914062 13.855469 11.46875 13.921875 10.890625 13.929688 C 10.5625 13.9375 10.238281 13.929688 9.910156 13.964844 C 9.753906 13.984375 9.617188 13.960938 9.539062 13.902344 C 10.109375 13.582031 10.355469 13.257812 10.828125 13 C 10.277344 13.214844 10.144531 13.433594 9.609375 13.675781 C 9.695312 13.554688 9.648438 13.347656 9.757812 13.226562 C 10.148438 12.796875 10.707031 12.34375 11.105469 12.195312 C 10.695312 12.140625 10.371094 12.597656 9.742188 13.015625 C 10.015625 12.589844 10.351562 12.214844 10.753906 11.984375 C 11.300781 11.679688 11.90625 11.664062 12.507812 11.78125 C 12.96875 11.867188 13.457031 11.960938 13.933594 11.953125 C 13.273438 12.222656 12.34375 11.742188 11.648438 12.007812 Z M 37.503906 41.964844 C 38.214844 41.839844 38.945312 42.117188 39.640625 42.382812 C 41.558594 43.113281 42.640625 42.015625 43.789062 40.230469 C 41.523438 40.828125 41.007812 38.824219 37.503906 41.964844 Z M 40.585938 42.144531 C 39.542969 42.035156 39.605469 41.820312 38.835938 41.703125 C 39.601562 41.605469 39.863281 41.703125 40.4375 41.652344 C 40.285156 41.632812 39.335938 41.609375 38.847656 41.546875 C 38.800781 41.542969 38.484375 41.496094 38.707031 41.464844 C 38.953125 41.429688 39.988281 41.519531 39.988281 41.488281 C 39.988281 41.46875 38.824219 41.28125 39.214844 41.234375 C 39.773438 41.160156 39.867188 41.214844 40.085938 41.164062 C 39.707031 41.160156 39.300781 41.0625 39.316406 41.039062 C 39.410156 40.90625 40.191406 40.628906 40.082031 40.664062 C 40.035156 40.679688 39.800781 40.707031 39.542969 40.8125 C 39.230469 40.9375 38.90625 41.125 38.84375 41.113281 C 39.246094 40.839844 39.667969 40.605469 40.089844 40.464844 C 40.648438 40.28125 41.097656 40.289062 41.667969 40.382812 C 41.992188 40.433594 42.308594 40.496094 42.636719 40.515625 C 42.792969 40.527344 42.925781 40.574219 42.996094 40.644531 C 42.375 40.859375 42.074219 41.136719 41.566406 41.308594 C 42.144531 41.195312 42.3125 41 42.882812 40.855469 C 42.78125 40.960938 42.789062 41.171875 42.660156 41.269531 C 42.199219 41.628906 41.574219 41.976562 41.15625 42.054688 C 41.546875 42.179688 41.949219 41.785156 42.640625 41.484375 C 42.292969 41.855469 41.902344 42.164062 41.460938 42.320312 C 40.871094 42.527344 40.273438 42.4375 39.699219 42.21875 C 39.261719 42.050781 38.800781 41.875 38.328125 41.800781 C 39.023438 41.648438 39.855469 42.285156 40.585938 42.144531 Z M 17.367188 9.65625 C 16.660156 9.777344 15.925781 9.503906 15.234375 9.238281 C 13.316406 8.503906 12.234375 9.601562 11.082031 11.386719 C 13.351562 10.789062 13.867188 12.792969 17.367188 9.65625 Z M 14.285156 9.476562 C 15.328125 9.585938 15.269531 9.796875 16.035156 9.917969 C 15.269531 10.015625 15.007812 9.914062 14.433594 9.96875 C 14.585938 9.984375 15.535156 10.011719 16.023438 10.070312 C 16.074219 10.078125 16.390625 10.125 16.164062 10.15625 C 15.917969 10.191406 14.882812 10.101562 14.882812 10.132812 C 14.882812 10.152344 16.046875 10.335938 15.65625 10.386719 C 15.097656 10.457031 15.003906 10.402344 14.789062 10.457031 C 15.164062 10.460938 15.570312 10.554688 15.554688 10.578125 C 15.464844 10.710938 14.679688 10.992188 14.789062 10.957031 C 14.835938 10.941406 15.070312 10.910156 15.328125 10.808594 C 15.640625 10.683594 15.96875 10.496094 16.027344 10.503906 C 15.625 10.78125 15.203125 11.015625 14.78125 11.15625 C 14.226562 11.339844 13.773438 11.328125 13.207031 11.238281 C 12.878906 11.1875 12.5625 11.125 12.234375 11.101562 C 12.078125 11.09375 11.945312 11.046875 11.878906 10.976562 C 12.5 10.761719 12.796875 10.480469 13.304688 10.308594 C 12.726562 10.425781 12.558594 10.617188 11.988281 10.761719 C 12.09375 10.660156 12.085938 10.449219 12.210938 10.347656 C 12.671875 9.992188 13.300781 9.640625 13.71875 9.566406 C 13.324219 9.441406 12.925781 9.832031 12.230469 10.136719 C 12.578125 9.765625 12.972656 9.453125 13.410156 9.300781 C 14 9.089844 14.597656 9.183594 15.171875 9.402344 C 15.609375 9.570312 16.074219 9.746094 16.546875 9.820312 C 15.847656 9.972656 15.015625 9.335938 14.285156 9.476562 Z M 34.546875 43.46875 C 35.265625 43.46875 35.941406 43.867188 36.578125 44.25 C 38.339844 45.304688 39.59375 44.410156 41.039062 42.851562 C 38.699219 43.046875 38.542969 40.984375 34.546875 43.46875 Z M 37.550781 44.179688 C 36.542969 43.890625 36.640625 43.691406 35.90625 43.441406 C 36.675781 43.476562 36.914062 43.621094 37.488281 43.667969 C 37.34375 43.625 36.414062 43.433594 35.941406 43.289062 C 35.894531 43.277344 35.59375 43.175781 35.820312 43.183594 C 36.066406 43.191406 37.070312 43.460938 37.078125 43.429688 C 37.082031 43.410156 35.964844 43.023438 36.359375 43.042969 C 36.921875 43.070312 37.003906 43.140625 37.226562 43.125 C 36.855469 43.058594 36.472656 42.890625 36.492188 42.871094 C 36.605469 42.757812 37.425781 42.621094 37.3125 42.636719 C 37.261719 42.640625 37.027344 42.628906 36.753906 42.6875 C 36.425781 42.757812 36.070312 42.882812 36.015625 42.863281 C 36.457031 42.660156 36.914062 42.503906 37.355469 42.4375 C 37.933594 42.355469 38.375 42.441406 38.921875 42.632812 C 39.230469 42.738281 39.535156 42.855469 39.855469 42.933594 C 40.003906 42.96875 40.128906 43.039062 40.183594 43.121094 C 39.535156 43.226562 39.191406 43.449219 38.664062 43.527344 C 39.25 43.515625 39.449219 43.355469 40.035156 43.308594 C 39.917969 43.394531 39.886719 43.601562 39.746094 43.679688 C 39.230469 43.953125 38.550781 44.1875 38.128906 44.1875 C 38.492188 44.378906 38.953125 44.0625 39.6875 43.886719 C 39.28125 44.191406 38.84375 44.429688 38.382812 44.503906 C 37.765625 44.605469 37.191406 44.414062 36.667969 44.097656 C 36.265625 43.859375 35.839844 43.605469 35.386719 43.449219 C 36.097656 43.421875 36.808594 44.191406 37.550781 44.179688 Z M 20.328125 8.152344 C 19.605469 8.148438 18.933594 7.753906 18.296875 7.371094 C 16.535156 6.316406 15.277344 7.210938 13.835938 8.769531 C 16.175781 8.570312 16.332031 10.636719 20.328125 8.152344 Z M 17.324219 7.441406 C 18.332031 7.730469 18.234375 7.929688 18.96875 8.179688 C 18.199219 8.144531 17.957031 8 17.382812 7.949219 C 17.53125 7.996094 18.460938 8.183594 18.929688 8.328125 C 18.980469 8.34375 19.28125 8.445312 19.054688 8.4375 C 18.804688 8.429688 17.804688 8.160156 17.796875 8.191406 C 17.792969 8.210938 18.90625 8.59375 18.515625 8.578125 C 17.953125 8.550781 17.867188 8.480469 17.648438 8.492188 C 18.015625 8.5625 18.402344 8.726562 18.382812 8.75 C 18.269531 8.863281 17.449219 9 17.5625 8.984375 C 17.609375 8.976562 17.847656 8.988281 18.121094 8.933594 C 18.449219 8.863281 18.800781 8.734375 18.859375 8.757812 C 18.417969 8.957031 17.960938 9.117188 17.519531 9.179688 C 16.9375 9.265625 16.496094 9.175781 15.953125 8.988281 C 15.640625 8.882812 15.339844 8.765625 15.019531 8.6875 C 14.867188 8.648438 14.746094 8.582031 14.691406 8.5 C 15.339844 8.394531 15.679688 8.171875 16.210938 8.089844 C 15.621094 8.105469 15.421875 8.265625 14.835938 8.308594 C 14.957031 8.226562 14.984375 8.015625 15.128906 7.941406 C 15.644531 7.667969 16.320312 7.433594 16.746094 7.429688 C 16.382812 7.238281 15.921875 7.554688 15.1875 7.734375 C 15.589844 7.429688 16.03125 7.191406 16.492188 7.113281 C 17.109375 7.011719 17.683594 7.207031 18.207031 7.519531 C 18.609375 7.761719 19.035156 8.015625 19.488281 8.171875 C 18.773438 8.199219 18.066406 7.429688 17.324219 7.441406 Z M 17.324219 7.441406 " fill-opacity="1" fill-rule="evenodd"/><path fill="#204465" d="M 24.910156 34.664062 C 24.136719 35.128906 22.019531 35.355469 20.027344 34.398438 C 21.644531 35.5 23.890625 35.578125 25.09375 35.078125 C 26.796875 34.371094 26.492188 31.347656 26.421875 28.335938 C 26.234375 32.816406 26.222656 33.875 24.910156 34.664062 Z M 24.910156 34.664062 " fill-opacity="1" fill-rule="evenodd"/><path fill="#204465" d="M 26.40625 13.109375 C 26.144531 13.371094 25.980469 13.734375 25.980469 14.136719 C 25.980469 14.535156 26.144531 14.898438 26.40625 15.164062 C 26.667969 15.425781 27.03125 15.585938 27.433594 15.585938 C 27.835938 15.585938 28.195312 15.425781 28.460938 15.164062 C 28.722656 14.898438 28.882812 14.535156 28.882812 14.136719 C 28.882812 13.734375 28.722656 13.371094 28.460938 13.109375 C 28.195312 12.847656 27.835938 12.683594 27.433594 12.683594 C 27.03125 12.683594 26.667969 12.847656 26.40625 13.109375 Z M 26.40625 13.109375 " fill-opacity="1" fill-rule="evenodd"/><path fill="#204465" d="M 30.246094 13.035156 C 29.804688 11.917969 28.710938 11.125 27.433594 11.125 C 26.15625 11.125 25.0625 11.917969 24.617188 13.035156 C 25.132812 12.070312 26.199219 11.40625 27.433594 11.40625 C 28.664062 11.40625 29.730469 12.070312 30.246094 13.035156 Z M 30.246094 13.035156 " fill-opacity="1" fill-rule="evenodd"/><path fill="#204465" d="M 18.199219 31.691406 C 18.320312 31.710938 18.441406 31.734375 18.5625 31.757812 C 17.78125 31.136719 17.296875 30.242188 17.003906 29.183594 C 17.140625 30.125 17.347656 31.058594 18.199219 31.691406 Z M 18.199219 31.691406 " fill-opacity="1" fill-rule="evenodd"/><path fill="#204465" d="M 26.433594 18.632812 L 18.804688 18.996094 L 26.410156 18.996094 Z M 26.433594 18.632812 " fill-opacity="1" fill-rule="evenodd"/><path fill="#204465" d="M 36.023438 19.71875 L 28.417969 19.71875 L 28.449219 20.082031 Z M 36.023438 19.71875 " fill-opacity="1" fill-rule="evenodd"/><path fill="#204465" d="M 29.121094 14.523438 C 29.121094 14.503906 29.121094 14.480469 29.117188 14.457031 C 29.003906 15.285156 28.292969 15.921875 27.433594 15.921875 C 26.574219 15.921875 25.863281 15.285156 25.746094 14.457031 C 25.746094 14.480469 25.746094 14.503906 25.746094 14.523438 C 25.746094 15.457031 26.5 16.210938 27.433594 16.210938 C 28.363281 16.210938 29.121094 15.457031 29.121094 14.523438 Z M 29.121094 14.523438 " fill-opacity="1" fill-rule="evenodd"/><path fill="#204465" d="M 38.324219 32.003906 C 38.398438 32.199219 38.433594 32.59375 38.507812 32.84375 C 38.734375 31.238281 38.519531 30.128906 37.976562 29.28125 C 38.257812 29.992188 38.480469 30.914062 38.324219 32.003906 Z M 38.324219 32.003906 " fill-opacity="1" fill-rule="evenodd"/><path fill="#204465" d="M 27.433594 7.46875 C 17.300781 7.46875 9.085938 15.6875 9.085938 25.816406 C 9.085938 35.949219 17.300781 44.164062 27.433594 44.164062 C 37.5625 44.164062 45.78125 35.949219 45.78125 25.816406 C 45.78125 15.6875 37.5625 7.46875 27.433594 7.46875 Z M 38.363281 33.585938 C 38.328125 33.050781 38.335938 32.546875 38.039062 32.074219 C 37.277344 35.390625 33.203125 37.480469 30.03125 38.535156 C 28.84375 38.929688 28.019531 39.34375 27.433594 40.820312 C 26.847656 39.34375 26.019531 38.929688 24.835938 38.535156 C 21.660156 37.480469 17.589844 35.390625 16.828125 32.074219 C 16.53125 32.546875 16.539062 33.050781 16.503906 33.585938 C 16.023438 32.835938 15.667969 30.542969 17.023438 28.742188 C 17.328125 29.929688 17.789062 30.933594 19.152344 31.929688 C 18.515625 32.003906 18.089844 31.867188 17.652344 31.808594 C 19.289062 35.273438 25.46875 35.878906 25.742188 32.402344 L 26.359375 20.371094 L 18.582031 19.941406 L 18.582031 18.746094 L 26.464844 18.308594 L 26.515625 17.328125 C 25.964844 17.171875 25.476562 16.878906 25.082031 16.484375 C 24.484375 15.882812 24.109375 15.054688 24.109375 14.136719 C 24.109375 13.21875 24.484375 12.386719 25.082031 11.785156 C 25.683594 11.183594 26.515625 10.8125 27.433594 10.8125 C 28.351562 10.8125 29.179688 11.183594 29.78125 11.785156 C 30.382812 12.386719 30.753906 13.21875 30.753906 14.136719 C 30.753906 15.054688 30.382812 15.882812 29.78125 16.484375 C 29.390625 16.878906 28.898438 17.171875 28.351562 17.328125 L 28.402344 18.308594 L 36.285156 18.746094 L 36.285156 19.941406 L 28.507812 20.371094 L 29.125 32.402344 C 29.394531 35.878906 35.578125 35.273438 37.210938 31.808594 C 36.777344 31.867188 36.351562 32.003906 35.710938 31.929688 C 37.078125 30.933594 37.539062 29.929688 37.84375 28.742188 C 39.195312 30.542969 38.839844 32.835938 38.363281 33.585938 Z M 38.363281 33.585938 " fill-opacity="1" fill-rule="evenodd"/><path fill="#204465" d="M 28.503906 35.328125 L 28.054688 22.09375 C 28.054688 26.515625 28.054688 34.414062 28.054688 38.835938 C 28.527344 38.449219 29.105469 38.1875 29.835938 37.941406 C 32.101562 37.1875 35.253906 35.742188 36.726562 33.535156 C 35.398438 35.160156 28.503906 39.167969 28.503906 35.328125 Z M 28.503906 35.328125 " fill-opacity="1" fill-rule="evenodd"/><g clip-path="url(#77debbd54c)"><path fill="#204465" d="M 27.433594 2.414062 C 20.972656 2.414062 15.121094 5.035156 10.886719 9.269531 C 6.652344 13.503906 4.03125 19.355469 4.03125 25.816406 C 4.03125 32.277344 6.652344 38.128906 10.886719 42.363281 C 15.121094 46.601562 20.972656 49.21875 27.433594 49.21875 C 33.894531 49.21875 39.746094 46.601562 43.980469 42.363281 C 48.214844 38.128906 50.835938 32.277344 50.835938 25.816406 C 50.835938 19.355469 48.214844 13.503906 43.980469 9.269531 C 39.746094 5.035156 33.894531 2.414062 27.433594 2.414062 Z M 11.445312 9.828125 C 15.535156 5.734375 21.191406 3.203125 27.433594 3.203125 C 33.675781 3.203125 39.328125 5.734375 43.421875 9.828125 C 47.515625 13.921875 50.046875 19.574219 50.046875 25.816406 C 50.046875 32.0625 47.515625 37.714844 43.421875 41.808594 C 39.328125 45.898438 33.675781 48.429688 27.433594 48.429688 C 21.191406 48.429688 15.535156 45.898438 11.445312 41.808594 C 7.351562 37.714844 4.820312 32.0625 4.820312 25.816406 C 4.820312 19.574219 7.351562 13.921875 11.445312 9.828125 Z M 11.445312 9.828125 " fill-opacity="1" fill-rule="nonzero"/></g><g fill="#204465" fill-opacity="1"><g transform="translate(56.792332, 25.233144)"><g><path d="M 5.203125 0 L 2.0625 0 L 2.0625 -15.890625 L 5.203125 -15.890625 Z M 5.203125 0 "/></g></g><g transform="translate(64.074174, 25.233144)"><g><path d="M 5.109375 0 L 2.0625 0 L 2.0625 -15.890625 L 5.671875 -15.890625 L 12.046875 -5.65625 L 12.328125 -5.703125 L 12.328125 -15.890625 L 15.34375 -15.890625 L 15.34375 0 L 12.140625 0 L 5.375 -10.9375 L 5.109375 -10.890625 Z M 5.109375 0 "/></g></g><g transform="translate(81.496252, 25.233144)"><g><path d="M 7.78125 -15.890625 C 10.363281 -15.890625 12.332031 -15.222656 13.6875 -13.890625 C 15.050781 -12.554688 15.734375 -10.578125 15.734375 -7.953125 C 15.734375 -5.328125 15.050781 -3.34375 13.6875 -2 C 12.332031 -0.664062 10.363281 0 7.78125 0 L 2.0625 0 L 2.0625 -15.890625 Z M 7.59375 -2.640625 C 9.238281 -2.640625 10.460938 -3.054688 11.265625 -3.890625 C 12.078125 -4.734375 12.484375 -6.085938 12.484375 -7.953125 C 12.484375 -9.804688 12.078125 -11.148438 11.265625 -11.984375 C 10.460938 -12.828125 9.238281 -13.25 7.59375 -13.25 L 5.203125 -13.25 L 5.203125 -2.640625 Z M 7.59375 -2.640625 "/></g></g><g transform="translate(98.483593, 25.233144)"><g><path d="M 5.203125 0 L 2.0625 0 L 2.0625 -15.890625 L 5.203125 -15.890625 Z M 5.203125 0 "/></g></g><g transform="translate(105.765435, 25.233144)"><g><path d="M 15.25 0 L 11.953125 0 L 10.75 -3.65625 L 4.65625 -3.65625 L 3.46875 0 L 0.234375 0 L 5.734375 -15.890625 L 9.765625 -15.890625 Z M 7.5625 -12.578125 L 5.515625 -6.3125 L 9.875 -6.3125 L 7.828125 -12.578125 Z M 7.5625 -12.578125 "/></g></g><g transform="translate(121.252934, 25.233144)"><g><path d="M 5.109375 0 L 2.0625 0 L 2.0625 -15.890625 L 5.671875 -15.890625 L 12.046875 -5.65625 L 12.328125 -5.703125 L 12.328125 -15.890625 L 15.34375 -15.890625 L 15.34375 0 L 12.140625 0 L 5.375 -10.9375 L 5.109375 -10.890625 Z M 5.109375 0 "/></g></g></g><g fill="#204465" fill-opacity="1"><g transform="translate(52.457586, 42.549905)"><g><path d="M 3.4375 0 L 1.4375 0 L 1.4375 -11.03125 L 4.28125 -11.03125 L 7.078125 -2.921875 L 7.234375 -2.921875 L 10.015625 -11.03125 L 12.796875 -11.03125 L 12.796875 0 L 10.734375 0 L 10.734375 -7.28125 L 10.546875 -7.3125 L 7.984375 0 L 6.171875 0 L 3.625 -7.3125 L 3.4375 -7.28125 Z M 3.4375 0 "/></g></g></g><g fill="#204465" fill-opacity="1"><g transform="translate(66.697838, 42.549905)"><g><path d="M 10.59375 0 L 8.296875 0 L 7.46875 -2.546875 L 3.234375 -2.546875 L 2.40625 0 L 0.171875 0 L 3.96875 -11.03125 L 6.78125 -11.03125 Z M 5.25 -8.734375 L 3.828125 -4.375 L 6.859375 -4.375 L 5.4375 -8.734375 Z M 5.25 -8.734375 "/></g></g></g><g fill="#204465" fill-opacity="1"><g transform="translate(77.451612, 42.549905)"><g><path d="M 1.4375 0 L 1.4375 -11.03125 L 5.859375 -11.03125 C 7.003906 -11.03125 7.863281 -10.765625 8.4375 -10.234375 C 9.019531 -9.710938 9.3125 -8.988281 9.3125 -8.0625 C 9.3125 -7.394531 9.140625 -6.847656 8.796875 -6.421875 C 8.460938 -5.992188 7.957031 -5.664062 7.28125 -5.4375 L 7.28125 -5.28125 C 7.632812 -5.132812 7.914062 -4.910156 8.125 -4.609375 C 8.34375 -4.316406 8.546875 -3.878906 8.734375 -3.296875 L 9.84375 0 L 7.59375 0 L 6.515625 -3.296875 C 6.410156 -3.628906 6.285156 -3.882812 6.140625 -4.0625 C 6.003906 -4.25 5.828125 -4.382812 5.609375 -4.46875 C 5.398438 -4.550781 5.125 -4.59375 4.78125 -4.59375 L 3.609375 -4.59375 L 3.609375 0 Z M 5.59375 -6.328125 C 6.65625 -6.328125 7.1875 -6.816406 7.1875 -7.796875 C 7.1875 -8.796875 6.65625 -9.296875 5.59375 -9.296875 L 3.609375 -9.296875 L 3.609375 -6.328125 Z M 5.59375 -6.328125 "/></g></g></g><g fill="#204465" fill-opacity="1"><g transform="translate(87.767689, 42.549905)"><g><path d="M 1.4375 0 L 1.4375 -11.03125 L 3.609375 -11.03125 L 3.609375 -6.53125 L 3.859375 -6.53125 L 7.53125 -11.03125 L 9.765625 -11.03125 L 9.765625 -10.84375 L 5.71875 -5.828125 L 10.1875 -0.1875 L 10.1875 0 L 7.734375 0 L 3.859375 -4.765625 L 3.609375 -4.765625 L 3.609375 0 Z M 1.4375 0 "/></g></g></g><g fill="#204465" fill-opacity="1"><g transform="translate(97.963022, 42.549905)"><g><path d="M 4.890625 0.15625 C 4.128906 0.15625 3.445312 0.0625 2.84375 -0.125 C 2.25 -0.3125 1.753906 -0.554688 1.359375 -0.859375 C 0.960938 -1.171875 0.65625 -1.507812 0.4375 -1.875 L 1.640625 -3.34375 L 1.828125 -3.34375 C 2.160156 -2.851562 2.582031 -2.460938 3.09375 -2.171875 C 3.601562 -1.878906 4.203125 -1.734375 4.890625 -1.734375 C 5.472656 -1.734375 5.910156 -1.851562 6.203125 -2.09375 C 6.503906 -2.34375 6.65625 -2.679688 6.65625 -3.109375 C 6.65625 -3.378906 6.609375 -3.597656 6.515625 -3.765625 C 6.421875 -3.941406 6.257812 -4.09375 6.03125 -4.21875 C 5.8125 -4.351562 5.515625 -4.460938 5.140625 -4.546875 L 3.71875 -4.875 C 2.726562 -5.101562 1.988281 -5.476562 1.5 -6 C 1.019531 -6.53125 0.78125 -7.210938 0.78125 -8.046875 C 0.78125 -8.671875 0.9375 -9.21875 1.25 -9.6875 C 1.5625 -10.164062 2.015625 -10.535156 2.609375 -10.796875 C 3.203125 -11.054688 3.914062 -11.1875 4.75 -11.1875 C 5.59375 -11.1875 6.316406 -11.070312 6.921875 -10.84375 C 7.535156 -10.625 8.050781 -10.285156 8.46875 -9.828125 L 7.390625 -8.34375 L 7.203125 -8.34375 C 6.890625 -8.664062 6.53125 -8.910156 6.125 -9.078125 C 5.71875 -9.242188 5.257812 -9.328125 4.75 -9.328125 C 4.144531 -9.328125 3.6875 -9.21875 3.375 -9 C 3.0625 -8.789062 2.90625 -8.503906 2.90625 -8.140625 C 2.90625 -7.785156 3.015625 -7.503906 3.234375 -7.296875 C 3.453125 -7.097656 3.832031 -6.941406 4.375 -6.828125 L 5.828125 -6.515625 C 6.898438 -6.296875 7.675781 -5.914062 8.15625 -5.375 C 8.632812 -4.832031 8.875 -4.125 8.875 -3.25 C 8.875 -2.5625 8.722656 -1.960938 8.421875 -1.453125 C 8.128906 -0.941406 7.679688 -0.546875 7.078125 -0.265625 C 6.484375 0.015625 5.753906 0.15625 4.890625 0.15625 Z M 4.890625 0.15625 "/></g></g></g><g fill="#204465" fill-opacity="1"><g transform="translate(107.441416, 42.549905)"><g><path d="M 3.609375 -11.03125 L 3.609375 -1.828125 L 8.578125 -1.828125 L 8.578125 0 L 1.4375 0 L 1.4375 -11.03125 Z M 3.609375 -11.03125 "/></g></g></g><g fill="#204465" fill-opacity="1"><g transform="translate(116.376463, 42.549905)"><g><path d="M 3.609375 0 L 1.4375 0 L 1.4375 -11.03125 L 3.609375 -11.03125 Z M 3.609375 0 "/></g></g></g><g fill="#204465" fill-opacity="1"><g transform="translate(121.432613, 42.549905)"><g><path d="M 3.546875 0 L 1.4375 0 L 1.4375 -11.03125 L 3.9375 -11.03125 L 8.359375 -3.921875 L 8.5625 -3.953125 L 8.5625 -11.03125 L 10.65625 -11.03125 L 10.65625 0 L 8.421875 0 L 3.734375 -7.59375 L 3.546875 -7.5625 Z M 3.546875 0 "/></g></g></g><g fill="#204465" fill-opacity="1"><g transform="translate(133.529662, 42.549905)"><g><path d="M 3.609375 -4.84375 L 3.609375 -1.828125 L 8.875 -1.828125 L 8.875 0 L 1.4375 0 L 1.4375 -11.03125 L 8.765625 -11.03125 L 8.765625 -9.203125 L 3.609375 -9.203125 L 3.609375 -6.625 L 8.109375 -6.625 L 8.109375 -4.84375 Z M 3.609375 -4.84375 "/></g></g></g></svg>